<svg xmlns="http://www.w3.org/2000/svg" viewBox="0 0 512 512" role="img" aria-labelledby="title desc">
  <title id="title">Shramdan logo</title>
  <desc id="desc">A transparent logo with mountains behind volunteers collecting litter by hand.</desc>
  <defs>
    <linearGradient id="ring" x1="78" x2="436" y1="82" y2="432" gradientUnits="userSpaceOnUse">
      <stop offset="0" stop-color="#0ea5e9"/>
      <stop offset=".5" stop-color="#2563eb"/>
      <stop offset="1" stop-color="#7c3aed"/>
    </linearGradient>
    <linearGradient id="mountainBack" x1="96" x2="418" y1="116" y2="300" gradientUnits="userSpaceOnUse">
      <stop offset="0" stop-color="#e0f2fe"/>
      <stop offset="1" stop-color="#c4b5fd"/>
    </linearGradient>
    <linearGradient id="mountainFront" x1="112" x2="410" y1="164" y2="328" gradientUnits="userSpaceOnUse">
      <stop offset="0" stop-color="#38bdf8"/>
      <stop offset="1" stop-color="#4f46e5"/>
    </linearGradient>
    <linearGradient id="ground" x1="118" x2="398" y1="354" y2="428" gradientUnits="userSpaceOnUse">
      <stop offset="0" stop-color="#67e8f9"/>
      <stop offset=".55" stop-color="#22d3ee"/>
      <stop offset="1" stop-color="#818cf8"/>
    </linearGradient>
    <linearGradient id="workerTeal" x1="139" x2="221" y1="246" y2="382" gradientUnits="userSpaceOnUse">
      <stop offset="0" stop-color="#2dd4bf"/>
      <stop offset="1" stop-color="#0f766e"/>
    </linearGradient>
    <linearGradient id="workerBlue" x1="242" x2="326" y1="229" y2="386" gradientUnits="userSpaceOnUse">
      <stop offset="0" stop-color="#60a5fa"/>
      <stop offset="1" stop-color="#1d4ed8"/>
    </linearGradient>
    <linearGradient id="workerViolet" x1="326" x2="406" y1="262" y2="390" gradientUnits="userSpaceOnUse">
      <stop offset="0" stop-color="#c084fc"/>
      <stop offset="1" stop-color="#7c3aed"/>
    </linearGradient>
    <filter id="shadow" x="-14%" y="-14%" width="128%" height="128%" color-interpolation-filters="sRGB">
      <feDropShadow dx="0" dy="12" flood-color="#0f172a" flood-opacity=".16" stdDeviation="10"/>
    </filter>
  </defs>

  <g fill="none" fill-rule="evenodd" filter="url(#shadow)">
    <path stroke="url(#ring)" stroke-linecap="round" stroke-width="32" d="M103 333c-36-87 1.5-188 85-232 83-44 186-18 238 60"/>
    <path stroke="url(#ring)" stroke-linecap="round" stroke-width="32" d="M407 374c-64 70-172 81-249 25" opacity=".9"/>

    <path fill="url(#mountainBack)" d="M86 304 172 168l52 76 82-124 120 184H86Z"/>
    <path fill="#f8fafc" d="m172 168 25 37-22-8-20 29 17-58Zm134-48 35 54-35-17-29 43 29-80Z" opacity=".94"/>
    <path fill="url(#mountainFront)" d="M96 324 184 216l54 67 61-81 119 122H96Z"/>
    <path fill="#bae6fd" d="m184 216 25 31-25-10-22 28 22-49Zm115-14 35 36-32-13-26 35 23-58Z" opacity=".9"/>

    <path fill="url(#ground)" d="M119 367c47-22 94-33 140-33 47 0 92 11 135 33-29 35-73 53-132 53-60 0-107-18-143-53Z"/>
    <path fill="#e0f2fe" d="M157 370c34-10 68-15 102-15 35 0 68 5 99 15-30 11-63 17-99 17-38 0-72-6-102-17Z" opacity=".9"/>

    <circle cx="171" cy="248" r="29" fill="#0f766e"/>
    <path fill="url(#workerTeal)" d="M127 331 153 274c7-15 29-15 36 0l30 61c6 13-3 28-18 28h-57c-15 0-24-16-17-32Z"/>
    <path fill="#0f766e" d="M197 328c13 7 24 17 33 30l-17 17c-10-13-21-22-33-27l17-20Z"/>
    <path fill="#ccfbf1" d="M224 354c9 0 17 8 17 17s-8 17-17 17-17-8-17-17 8-17 17-17Z"/>

    <circle cx="298" cy="232" r="31" fill="#1d4ed8"/>
    <path fill="url(#workerBlue)" d="M253 322 280 264c7-16 30-16 37 0l28 58c6 13-3 28-18 28h-56c-15 0-24-15-18-28Z"/>
    <path fill="#1e40af" d="M268 331c-15 9-27 21-36 36l20 14c8-13 18-23 30-29l-14-21Z"/>
    <path fill="#dbeafe" d="M231 361c9 0 17 8 17 17s-8 17-17 17-17-8-17-17 8-17 17-17Z"/>

    <circle cx="371" cy="265" r="25" fill="#7c3aed"/>
    <path fill="url(#workerViolet)" d="M335 336 353 290c6-15 28-15 34 0l19 46c5 13-4 27-18 27h-35c-14 0-23-14-18-27Z"/>
    <path fill="#6d28d9" d="M352 340c-12 8-21 18-28 31l18 12c6-10 13-18 23-23l-13-20Z"/>
    <path fill="#ede9fe" d="M326 367c8 0 15 7 15 15s-7 15-15 15-15-7-15-15 7-15 15-15Z"/>

    <path fill="#0f766e" d="M279 356h58c8 0 14 6 14 14v36h-86v-36c0-8 6-14 14-14Z"/>
    <path fill="#5eead4" d="M258 345h102c6 0 11 5 11 11v13H247v-13c0-6 5-11 11-11Z"/>
    <path fill="#134e4a" d="M292 370h32v31h-32z" opacity=".28"/>

    <path fill="#ef4444" d="m181 386 22-7 5 17-22 7z"/>
    <path fill="#facc15" d="m354 381 21 8-6 16-21-8z"/>
    <path fill="#64748b" d="m118 382 24-3 3 16-24 3z"/>
    <path fill="#38bdf8" d="m402 351 20 5-4 16-20-5z"/>
    <path fill="#e0f2fe" d="M101 166c0-13 11-24 24-24 0 13 11 24 24 24-13 0-24 11-24 24 0-13-11-24-24-24Zm312 55c0-12 9-21 21-21 0 12 9 21 21 21-12 0-21 9-21 21 0-12-9-21-21-21Z"/>
    <circle cx="109" cy="260" r="9" fill="#bae6fd"/>
    <circle cx="396" cy="116" r="8" fill="#c4b5fd"/>
  </g>
</svg>
